<svg width="36" height="36" viewBox="0 0 36 36" fill="none" xmlns="http://www.w3.org/2000/svg">
<g clip-path="url(#clip0_843_12130)">
<path d="M15.2919 18.9588H6.62524C6.3491 18.9588 6.12524 18.735 6.12524 18.4588V7.12549C6.12524 6.84935 6.3491 6.62549 6.62525 6.62549H15.2919C15.5681 6.62549 15.7919 6.84935 15.7919 7.12549V18.4588C15.7919 18.735 15.5681 18.9588 15.2919 18.9588ZM15.2919 29.6255H6.62524C6.3491 29.6255 6.12524 29.4016 6.12524 29.1255V23.1255C6.12524 22.8493 6.3491 22.6255 6.62525 22.6255H15.2919C15.5681 22.6255 15.7919 22.8493 15.7919 23.1255V29.1255C15.7919 29.4016 15.5681 29.6255 15.2919 29.6255ZM28.6252 29.6255H19.9586C19.6824 29.6255 19.4586 29.4016 19.4586 29.1255V17.7922C19.4586 17.516 19.6824 17.2922 19.9586 17.2922H28.6252C28.9014 17.2922 29.1252 17.516 29.1252 17.7922V29.1255C29.1252 29.4016 28.9014 29.6255 28.6252 29.6255ZM19.4586 13.1255V7.12549C19.4586 6.84935 19.6824 6.62549 19.9586 6.62549H28.6252C28.9014 6.62549 29.1252 6.84935 29.1252 7.12549V13.1255C29.1252 13.4016 28.9014 13.6255 28.6252 13.6255H19.9586C19.6824 13.6255 19.4586 13.4016 19.4586 13.1255Z" fill="white" stroke="white"/>
</g>
<defs>
<clipPath id="clip0_843_12130">
<rect width="35.2505" height="35.0554" fill="white" transform="translate(0 0.5)"/>
</clipPath>
</defs>
</svg>
