<svg width="26" height="26" viewBox="0 0 26 26" fill="none" xmlns="http://www.w3.org/2000/svg">
<path d="M4.35511 20.4563L4.13513 20.7691L4.37936 21.0633C6.64719 23.7953 10.4073 24.7387 13.0276 24.7387C14.795 24.7387 17.1213 24.3091 19.1444 23.1877C17.3529 24.252 15.2612 24.8633 13.0276 24.8633C6.40373 24.8633 1.02759 19.4871 1.02759 12.8633C1.02759 6.23942 6.40373 0.863281 13.0276 0.863281C19.6514 0.863281 25.0276 6.23942 25.0276 12.8633C25.0276 16.1976 23.6653 19.2157 21.4674 21.3911C21.5657 21.2848 21.6616 21.1756 21.7548 21.0633L22.0055 20.7613L21.7716 20.446C19.1836 16.9579 16.0424 16.1133 13.0276 16.1133C10.0079 16.1133 6.63993 17.2077 4.35511 20.4563ZM17.9026 8.8122C17.9026 6.12356 15.7162 3.9372 13.0276 3.9372C10.3389 3.9372 8.15259 6.12356 8.15259 8.8122C8.15259 11.5008 10.3389 13.6872 13.0276 13.6872C15.7162 13.6872 17.9026 11.5008 17.9026 8.8122Z" stroke="white"/>
</svg>
